<mxfile host="app.diagrams.net" agent="Mozilla/5.0 (Windows NT 10.0; Win64; x64) AppleWebKit/537.36 (KHTML, like Gecko) Chrome/121.0.0.0 Safari/537.36 Edg/121.0.0.0" version="26.2.5">
  <diagram name="第 1 页" id="lBJFoEnFROXjnsYBZcm4">
    <mxGraphModel dx="1671" dy="939" grid="1" gridSize="10" guides="1" tooltips="1" connect="1" arrows="1" fold="1" page="1" pageScale="1" pageWidth="827" pageHeight="1169" math="0" shadow="0">
      <root>
        <mxCell id="0" />
        <mxCell id="1" parent="0" />
        <mxCell id="CkpeqJauiwajJsET2kVr-14" value="" style="edgeStyle=orthogonalEdgeStyle;rounded=0;orthogonalLoop=1;jettySize=auto;html=1;entryX=0.462;entryY=-0.013;entryDx=0;entryDy=0;entryPerimeter=0;" edge="1" parent="1" source="CkpeqJauiwajJsET2kVr-1" target="CkpeqJauiwajJsET2kVr-10">
          <mxGeometry relative="1" as="geometry">
            <mxPoint x="650" y="110.05882352941194" as="targetPoint" />
          </mxGeometry>
        </mxCell>
        <mxCell id="CkpeqJauiwajJsET2kVr-1" value="bond_issue" style="rounded=0;whiteSpace=wrap;html=1;" vertex="1" parent="1">
          <mxGeometry x="50" y="92" width="120" height="60" as="geometry" />
        </mxCell>
        <mxCell id="CkpeqJauiwajJsET2kVr-18" value="" style="edgeStyle=orthogonalEdgeStyle;rounded=0;orthogonalLoop=1;jettySize=auto;html=1;" edge="1" parent="1" source="CkpeqJauiwajJsET2kVr-2">
          <mxGeometry relative="1" as="geometry">
            <mxPoint x="410" y="290" as="targetPoint" />
          </mxGeometry>
        </mxCell>
        <mxCell id="CkpeqJauiwajJsET2kVr-2" value="main_security" style="rounded=0;whiteSpace=wrap;html=1;" vertex="1" parent="1">
          <mxGeometry x="50" y="261" width="120" height="60" as="geometry" />
        </mxCell>
        <mxCell id="CkpeqJauiwajJsET2kVr-20" value="" style="edgeStyle=orthogonalEdgeStyle;rounded=0;orthogonalLoop=1;jettySize=auto;html=1;entryX=0;entryY=0.5;entryDx=0;entryDy=0;" edge="1" parent="1" source="CkpeqJauiwajJsET2kVr-3" target="CkpeqJauiwajJsET2kVr-10">
          <mxGeometry relative="1" as="geometry">
            <mxPoint x="250" y="377" as="targetPoint" />
          </mxGeometry>
        </mxCell>
        <mxCell id="CkpeqJauiwajJsET2kVr-3" value="bond_term" style="rounded=0;whiteSpace=wrap;html=1;" vertex="1" parent="1">
          <mxGeometry x="50" y="347" width="120" height="60" as="geometry" />
        </mxCell>
        <mxCell id="CkpeqJauiwajJsET2kVr-30" value="" style="edgeStyle=orthogonalEdgeStyle;rounded=0;orthogonalLoop=1;jettySize=auto;html=1;" edge="1" parent="1" source="CkpeqJauiwajJsET2kVr-4">
          <mxGeometry relative="1" as="geometry">
            <mxPoint x="410" y="469" as="targetPoint" />
          </mxGeometry>
        </mxCell>
        <mxCell id="CkpeqJauiwajJsET2kVr-4" value="bond_type" style="rounded=0;whiteSpace=wrap;html=1;" vertex="1" parent="1">
          <mxGeometry x="50" y="439" width="120" height="60" as="geometry" />
        </mxCell>
        <mxCell id="CkpeqJauiwajJsET2kVr-16" value="" style="edgeStyle=orthogonalEdgeStyle;rounded=0;orthogonalLoop=1;jettySize=auto;html=1;" edge="1" parent="1" source="CkpeqJauiwajJsET2kVr-5">
          <mxGeometry relative="1" as="geometry">
            <mxPoint x="410" y="211" as="targetPoint" />
          </mxGeometry>
        </mxCell>
        <mxCell id="CkpeqJauiwajJsET2kVr-5" value="&lt;div style=&quot;background-color: rgb(255, 255, 254); font-family: Consolas, &amp;quot;Courier New&amp;quot;, monospace; line-height: 16px; white-space: pre;&quot;&gt;bond_code_convert&lt;/div&gt;" style="rounded=0;whiteSpace=wrap;html=1;" vertex="1" parent="1">
          <mxGeometry x="50" y="181" width="120" height="60" as="geometry" />
        </mxCell>
        <mxCell id="CkpeqJauiwajJsET2kVr-28" value="" style="edgeStyle=orthogonalEdgeStyle;rounded=0;orthogonalLoop=1;jettySize=auto;html=1;" edge="1" parent="1" source="CkpeqJauiwajJsET2kVr-6">
          <mxGeometry relative="1" as="geometry">
            <mxPoint x="420" y="555" as="targetPoint" />
          </mxGeometry>
        </mxCell>
        <mxCell id="CkpeqJauiwajJsET2kVr-6" value="&lt;div style=&quot;background-color: rgb(255, 255, 254); font-family: Consolas, &amp;quot;Courier New&amp;quot;, monospace; line-height: 16px; white-space: pre;&quot;&gt;bond_coupon&lt;/div&gt;" style="rounded=0;whiteSpace=wrap;html=1;" vertex="1" parent="1">
          <mxGeometry x="50" y="525" width="120" height="60" as="geometry" />
        </mxCell>
        <mxCell id="CkpeqJauiwajJsET2kVr-26" value="" style="edgeStyle=orthogonalEdgeStyle;rounded=0;orthogonalLoop=1;jettySize=auto;html=1;" edge="1" parent="1" source="CkpeqJauiwajJsET2kVr-7">
          <mxGeometry relative="1" as="geometry">
            <mxPoint x="410" y="650" as="targetPoint" />
          </mxGeometry>
        </mxCell>
        <mxCell id="CkpeqJauiwajJsET2kVr-7" value="&lt;div style=&quot;background-color: rgb(255, 255, 254); font-family: Consolas, &amp;quot;Courier New&amp;quot;, monospace; line-height: 16px; white-space: pre;&quot;&gt;main_party&lt;/div&gt;" style="rounded=0;whiteSpace=wrap;html=1;" vertex="1" parent="1">
          <mxGeometry x="50" y="620" width="120" height="60" as="geometry" />
        </mxCell>
        <mxCell id="CkpeqJauiwajJsET2kVr-24" value="" style="edgeStyle=orthogonalEdgeStyle;rounded=0;orthogonalLoop=1;jettySize=auto;html=1;" edge="1" parent="1" source="CkpeqJauiwajJsET2kVr-8">
          <mxGeometry relative="1" as="geometry">
            <mxPoint x="410" y="740" as="targetPoint" />
          </mxGeometry>
        </mxCell>
        <mxCell id="CkpeqJauiwajJsET2kVr-8" value="&lt;div style=&quot;background-color: rgb(255, 255, 254); font-family: Consolas, &amp;quot;Courier New&amp;quot;, monospace; line-height: 16px; white-space: pre;&quot;&gt;&lt;div style=&quot;line-height: 16px;&quot;&gt;bond_party&lt;/div&gt;&lt;/div&gt;" style="rounded=0;whiteSpace=wrap;html=1;" vertex="1" parent="1">
          <mxGeometry x="50" y="710" width="120" height="60" as="geometry" />
        </mxCell>
        <mxCell id="CkpeqJauiwajJsET2kVr-22" value="" style="edgeStyle=orthogonalEdgeStyle;rounded=0;orthogonalLoop=1;jettySize=auto;html=1;entryX=0.5;entryY=1;entryDx=0;entryDy=0;" edge="1" parent="1" source="CkpeqJauiwajJsET2kVr-9" target="CkpeqJauiwajJsET2kVr-10">
          <mxGeometry relative="1" as="geometry">
            <mxPoint x="440" y="839.9999999999998" as="targetPoint" />
          </mxGeometry>
        </mxCell>
        <mxCell id="CkpeqJauiwajJsET2kVr-9" value="&lt;div style=&quot;background-color: rgb(255, 255, 254); font-family: Consolas, &amp;quot;Courier New&amp;quot;, monospace; line-height: 16px; white-space: pre;&quot;&gt;&lt;div style=&quot;line-height: 16px;&quot;&gt;&lt;div style=&quot;line-height: 16px;&quot;&gt;bond_basic&lt;/div&gt;&lt;/div&gt;&lt;/div&gt;" style="rounded=0;whiteSpace=wrap;html=1;" vertex="1" parent="1">
          <mxGeometry x="50" y="810" width="120" height="60" as="geometry" />
        </mxCell>
        <mxCell id="CkpeqJauiwajJsET2kVr-32" value="" style="edgeStyle=orthogonalEdgeStyle;rounded=0;orthogonalLoop=1;jettySize=auto;html=1;" edge="1" parent="1" source="CkpeqJauiwajJsET2kVr-10" target="CkpeqJauiwajJsET2kVr-31">
          <mxGeometry relative="1" as="geometry" />
        </mxCell>
        <mxCell id="CkpeqJauiwajJsET2kVr-10" value="&lt;div style=&quot;background-color: rgb(255, 255, 254); line-height: 16px;&quot;&gt;&lt;font face=&quot;Consolas, Courier New, monospace&quot;&gt;&lt;span style=&quot;white-space: pre;&quot;&gt;数据join汇总&lt;/span&gt;&lt;/font&gt;&lt;br&gt;&lt;/div&gt;" style="rounded=0;whiteSpace=wrap;html=1;" vertex="1" parent="1">
          <mxGeometry x="358" y="347" width="110" height="60" as="geometry" />
        </mxCell>
        <mxCell id="CkpeqJauiwajJsET2kVr-34" value="" style="edgeStyle=orthogonalEdgeStyle;rounded=0;orthogonalLoop=1;jettySize=auto;html=1;" edge="1" parent="1" source="CkpeqJauiwajJsET2kVr-31" target="CkpeqJauiwajJsET2kVr-33">
          <mxGeometry relative="1" as="geometry" />
        </mxCell>
        <mxCell id="CkpeqJauiwajJsET2kVr-37" value="N" style="edgeLabel;html=1;align=center;verticalAlign=middle;resizable=0;points=[];" vertex="1" connectable="0" parent="CkpeqJauiwajJsET2kVr-34">
          <mxGeometry x="-0.0852" y="-3" relative="1" as="geometry">
            <mxPoint as="offset" />
          </mxGeometry>
        </mxCell>
        <mxCell id="CkpeqJauiwajJsET2kVr-36" value="" style="edgeStyle=orthogonalEdgeStyle;rounded=0;orthogonalLoop=1;jettySize=auto;html=1;entryX=0.5;entryY=0;entryDx=0;entryDy=0;" edge="1" parent="1" source="CkpeqJauiwajJsET2kVr-31" target="CkpeqJauiwajJsET2kVr-39">
          <mxGeometry relative="1" as="geometry">
            <mxPoint x="580" y="524.5" as="targetPoint" />
          </mxGeometry>
        </mxCell>
        <mxCell id="CkpeqJauiwajJsET2kVr-38" value="Y" style="edgeLabel;html=1;align=center;verticalAlign=middle;resizable=0;points=[];" vertex="1" connectable="0" parent="CkpeqJauiwajJsET2kVr-36">
          <mxGeometry x="-0.1007" relative="1" as="geometry">
            <mxPoint as="offset" />
          </mxGeometry>
        </mxCell>
        <mxCell id="CkpeqJauiwajJsET2kVr-31" value="是否满足" style="rhombus;whiteSpace=wrap;html=1;rounded=0;" vertex="1" parent="1">
          <mxGeometry x="540" y="337" width="80" height="80" as="geometry" />
        </mxCell>
        <mxCell id="CkpeqJauiwajJsET2kVr-33" value="&lt;span style=&quot;font-family: Consolas, &amp;quot;Courier New&amp;quot;, monospace; white-space: pre; background-color: rgb(255, 255, 254);&quot;&gt;dmdc.pa_bond_interest_warn&lt;/span&gt;" style="whiteSpace=wrap;html=1;rounded=0;" vertex="1" parent="1">
          <mxGeometry x="490" y="152" width="180" height="60" as="geometry" />
        </mxCell>
        <mxCell id="CkpeqJauiwajJsET2kVr-39" value="&lt;span style=&quot;font-family: Consolas, &amp;quot;Courier New&amp;quot;, monospace; white-space: pre; background-color: rgb(255, 255, 254);&quot;&gt;dmdc.pa_bond_interest&lt;/span&gt;" style="whiteSpace=wrap;html=1;rounded=0;" vertex="1" parent="1">
          <mxGeometry x="490" y="585" width="180" height="60" as="geometry" />
        </mxCell>
      </root>
    </mxGraphModel>
  </diagram>
</mxfile>
